<svg xmlns="http://www.w3.org/2000/svg" xmlns:xlink="http://www.w3.org/1999/xlink" width="1500" viewBox="0 699 1500 101" height="101" preserveAspectRatio="xMidYMid meet" version="1.0">
  <defs>
    <clipPath id="bb0e95c04a"><path d="M 0 699.273438 L 1500 699.273438 L 1500 799.773438 L 0 799.773438 Z M 0 699.273438 " clip-rule="nonzero"/></clipPath>
    <clipPath id="5e178e3b64"><path d="M 463.167969 0.273438 L 1050.152344 0.273438 L 1050.152344 100.679688 L 463.167969 100.679688 Z M 463.167969 0.273438 " clip-rule="nonzero"/></clipPath>
    <clipPath id="4e30403d77"><path d="M 1052.429688 50 L 1500 50 L 1500 75.628906 L 1052.429688 75.628906 Z M 1052.429688 50 " clip-rule="nonzero"/></clipPath>
    <clipPath id="8770b63502"><rect x="0" width="1500" y="0" height="101"/></clipPath>
  </defs>
  <g clip-path="url(#bb0e95c04a)">
    <g transform="matrix(1, 0, 0, 1, 0, 699)">
      <g clip-path="url(#8770b63502)">
        <g clip-path="url(#5e178e3b64)">
          <path fill="#d3a100" d="M 855.578125 26.914062 C 850.398438 21.726562 841.03125 32.398438 839.574219 36.414062 C 836.746094 44.203125 835.167969 55.75 841.820312 62.234375 C 843.375 63.757812 848.578125 64.144531 853.921875 64.035156 C 856.101562 60.855469 857.914062 57.386719 859.257812 53.613281 C 862.394531 44.808594 862.703125 34.058594 855.578125 26.914062 Z M 760.960938 59.722656 C 766.847656 48.496094 765.335938 41.871094 756.683594 35.460938 C 748.027344 41.871094 746.523438 48.496094 752.410156 59.722656 C 753.628906 62.050781 755.066406 64.347656 756.683594 66.5625 C 758.304688 64.347656 759.742188 62.050781 760.960938 59.722656 Z M 671.546875 62.234375 C 678.195312 55.75 676.621094 44.203125 673.792969 36.414062 C 672.335938 32.398438 662.972656 21.726562 657.792969 26.914062 C 650.660156 34.058594 650.976562 44.808594 654.113281 53.613281 C 655.460938 57.386719 657.269531 60.855469 659.441406 64.035156 C 664.796875 64.144531 669.992188 63.757812 671.546875 62.234375 Z M 1045.785156 79.242188 C 1035.148438 99.003906 1011.398438 104.046875 990.839844 98.652344 C 974.519531 94.371094 953.027344 83.722656 950.464844 64.941406 C 948.265625 48.839844 960.171875 37.09375 975.964844 37.066406 C 983.023438 37.046875 990.394531 39.347656 995.644531 44.207031 C 1001.101562 49.261719 1006.488281 61.890625 1004.339844 69.132812 C 1002.285156 76.089844 994.503906 78.058594 988.1875 74.90625 C 983.386719 72.511719 979.691406 65.648438 981.285156 59.5625 C 982.476562 54.996094 989.203125 53.148438 990.164062 48.617188 C 991.796875 40.988281 983.0625 41.488281 977.828125 43.367188 C 970.359375 46.042969 963.265625 51.785156 961.523438 59.945312 C 954.417969 93.3125 998.746094 98.839844 1020.933594 83.039062 C 1040.71875 68.945312 1043.183594 46.433594 1031.292969 26.605469 C 1015.050781 -0.496094 975.5625 7.910156 952.839844 25.925781 C 934.84375 40.199219 924.226562 57.507812 901.996094 65.707031 C 890.539062 69.9375 876.660156 70.246094 864.085938 69.953125 C 851.839844 86.835938 829.046875 97.09375 808.878906 95.308594 C 790.136719 93.648438 771.691406 84.875 757.386719 72.683594 C 757.148438 72.484375 756.917969 72.273438 756.683594 72.066406 C 756.453125 72.273438 756.21875 72.484375 755.984375 72.683594 C 741.675781 84.875 723.234375 93.648438 704.492188 95.308594 C 684.320312 97.09375 661.53125 86.835938 649.285156 69.953125 C 636.710938 70.246094 622.828125 69.9375 611.371094 65.707031 C 589.144531 57.507812 578.527344 40.199219 560.527344 25.925781 C 537.808594 7.910156 498.324219 -0.496094 482.074219 26.605469 C 470.183594 46.433594 472.644531 68.945312 492.4375 83.039062 C 514.628906 98.839844 558.949219 93.3125 551.84375 59.945312 C 550.105469 51.785156 543.011719 46.042969 535.539062 43.367188 C 530.304688 41.488281 521.574219 40.988281 523.199219 48.617188 C 524.167969 53.148438 530.894531 54.996094 532.082031 59.5625 C 533.675781 65.648438 529.988281 72.511719 525.179688 74.90625 C 518.867188 78.058594 511.085938 76.089844 509.027344 69.132812 C 506.882812 61.890625 512.269531 49.261719 517.726562 44.207031 C 522.972656 39.347656 530.34375 37.046875 537.40625 37.066406 C 553.191406 37.09375 565.101562 48.839844 562.90625 64.941406 C 560.339844 83.722656 538.851562 94.371094 522.527344 98.652344 C 501.96875 104.046875 478.222656 99.003906 467.578125 79.242188 C 457.480469 60.492188 466.128906 32.527344 481.679688 19.332031 C 497.230469 6.132812 516.878906 -1.128906 537.316406 0.320312 C 561.335938 2.023438 577.65625 21.171875 593.828125 36.742188 C 608.671875 51.023438 625.519531 62.941406 644.878906 62.628906 C 643.640625 60.101562 642.621094 57.472656 641.875 54.738281 C 637.621094 39.195312 648.976562 28.664062 661.664062 22.757812 C 677.910156 15.199219 687.105469 29.316406 686.855469 44.734375 C 686.652344 57.148438 673.496094 65.105469 662.550781 68.105469 C 677.941406 86.109375 706.214844 92.65625 728.167969 87.082031 C 738.007812 84.585938 747.320312 77.894531 754.195312 69.714844 C 740.648438 56.03125 736.46875 36.058594 756.277344 22.535156 C 756.425781 22.433594 756.5625 22.421875 756.683594 22.457031 C 756.808594 22.421875 756.941406 22.433594 757.089844 22.535156 C 776.894531 36.058594 772.722656 56.03125 759.179688 69.714844 C 766.046875 77.894531 775.363281 84.585938 785.199219 87.082031 C 807.152344 92.65625 835.425781 86.109375 850.8125 68.105469 C 839.871094 65.105469 826.714844 57.148438 826.515625 44.734375 C 826.265625 29.316406 835.464844 15.199219 851.703125 22.757812 C 864.394531 28.664062 875.75 39.195312 871.496094 54.738281 C 870.753906 57.472656 869.726562 60.101562 868.492188 62.628906 C 887.847656 62.941406 904.695312 51.023438 919.539062 36.742188 C 935.714844 21.171875 952.035156 2.023438 976.050781 0.320312 C 996.488281 -1.128906 1016.140625 6.132812 1031.6875 19.332031 C 1047.242188 32.527344 1055.886719 60.492188 1045.785156 79.242188 " fill-opacity="1" fill-rule="nonzero"/>
        </g>
        <path fill="#d3a100" d="M 459.253906 59.601562 L 345.367188 62.339844 L 459.332031 65.796875 C 459.855469 69.164062 461.160156 72.375 463.234375 75.027344 L 10.417969 61.292969 L 462.703125 50.40625 C 460.804688 53.09375 459.664062 56.289062 459.253906 59.601562 " fill-opacity="1" fill-rule="nonzero"/>
        <g clip-path="url(#4e30403d77)">
          <path fill="#d3a100" d="M 1056.460938 59.601562 L 1170.355469 62.339844 L 1056.386719 65.796875 C 1055.867188 69.164062 1054.5625 72.375 1052.488281 75.027344 L 1505.304688 61.292969 L 1053.023438 50.40625 C 1054.921875 53.09375 1056.058594 56.289062 1056.460938 59.601562 " fill-opacity="1" fill-rule="nonzero"/>
        </g>
      </g>
    </g>
  </g>
</svg>